HIERARCHY
ROOT Hips
{
	OFFSET 0.000000 121.760803 0.000000
	CHANNELS 6 Xposition Yposition Zposition Xrotation Yrotation Zrotation 
	JOINT Spine
	{
		OFFSET 0.072000 7.257294 -0.789700
		CHANNELS 3 Xrotation Yrotation Zrotation
		JOINT Spine1
		{
			OFFSET 0.000000 12.508769 -0.658067
			CHANNELS 3 Xrotation Yrotation Zrotation
			JOINT Spine1_split
			{
				OFFSET 0.000000 12.508769 -0.658067
				CHANNELS 3 Xrotation Yrotation Zrotation
				JOINT Spine2
				{
					OFFSET 0.000000 12.508769 -0.658067
					CHANNELS 3 Xrotation Yrotation Zrotation
					JOINT Neck
					{
						OFFSET 0.000000 14.033295 7.520400
						CHANNELS 3 Xrotation Yrotation Zrotation
						JOINT Head
						{
							OFFSET 0.000000 8.198502 5.703100
							CHANNELS 3 Xrotation Yrotation Zrotation
							JOINT HeadTop_End
							{
								OFFSET 0.000000 17.760803 13.332701
								CHANNELS 3 Xrotation Yrotation Zrotation
								End Site
								{
									OFFSET 0.000000 0.000000 0.000000
								}
							}
						}
					}
					JOINT LeftShoulder
					{
						OFFSET 6.292450 5.785301 -0.669000
						CHANNELS 3 Xrotation Yrotation Zrotation
						JOINT LeftShoulder_split
						{
							OFFSET 6.292450 5.785301 -0.669000
							CHANNELS 3 Xrotation Yrotation Zrotation
							JOINT LeftArm
							{
								OFFSET 13.907140 -6.093903 1.965100
								CHANNELS 3 Xrotation Yrotation Zrotation
								JOINT LeftForeArm
								{
									OFFSET 34.140198 0.000000 0.000000
									CHANNELS 3 Xrotation Yrotation Zrotation
									JOINT LeftHand
									{
										OFFSET 40.960209 0.000000 0.000000
										CHANNELS 3 Xrotation Yrotation Zrotation
										JOINT LeftHandThumb1
										{
											OFFSET 10.006996 -7.170425 9.573125
											CHANNELS 3 Xrotation Yrotation Zrotation
											JOINT LeftHandThumb2
											{
												OFFSET 1.835007 -1.059448 1.059443
												CHANNELS 3 Xrotation Yrotation Zrotation
												JOINT LeftHandThumb3
												{
													OFFSET 2.112267 -1.219513 1.219518
													CHANNELS 3 Xrotation Yrotation Zrotation
													JOINT LeftHandThumb4
													{
														OFFSET 4.843811 -2.796570 2.796576
														CHANNELS 3 Xrotation Yrotation Zrotation
														End Site
														{
															OFFSET 0.000000 0.000000 0.000000
														}
													}
												}
											}
										}
										JOINT LeftHandIndex1
										{
											OFFSET 18.389847 -0.922348 4.596882
											CHANNELS 3 Xrotation Yrotation Zrotation
											JOINT LeftHandIndex2
											{
												OFFSET 4.711273 0.000000 0.000000
												CHANNELS 3 Xrotation Yrotation Zrotation
												JOINT LeftHandIndex3
												{
													OFFSET 2.886131 0.000000 0.000000
													CHANNELS 3 Xrotation Yrotation Zrotation
													JOINT LeftHandIndex4
													{
														OFFSET 6.145912 0.000000 0.000000
														CHANNELS 3 Xrotation Yrotation Zrotation
														End Site
														{
															OFFSET 0.000000 0.000000 0.000000
														}
													}
												}
											}
										}
										JOINT LeftHandMiddle1
										{
											OFFSET 18.013008 0.000000 0.000000
											CHANNELS 3 Xrotation Yrotation Zrotation
											JOINT LeftHandMiddle2
											{
												OFFSET 4.946693 0.000000 0.000000
												CHANNELS 3 Xrotation Yrotation Zrotation
												JOINT LeftHandMiddle3
												{
													OFFSET 3.342232 0.000000 0.000000
													CHANNELS 3 Xrotation Yrotation Zrotation
													JOINT LeftHandMiddle4
													{
														OFFSET 4.461754 0.000000 0.000000
														CHANNELS 3 Xrotation Yrotation Zrotation
														End Site
														{
															OFFSET 0.000000 0.000000 0.000000
														}
													}
												}
											}
										}
										JOINT LeftHandRing1
										{
											OFFSET 15.849892 -0.102921 -4.126150
											CHANNELS 3 Xrotation Yrotation Zrotation
											JOINT LeftHandRing2
											{
												OFFSET 3.527054 0.000000 0.000000
												CHANNELS 3 Xrotation Yrotation Zrotation
												JOINT LeftHandRing3
												{
													OFFSET 2.961098 0.000000 0.000000
													CHANNELS 3 Xrotation Yrotation Zrotation
													JOINT LeftHandRing4
													{
														OFFSET 4.927200 0.000000 0.000000
														CHANNELS 3 Xrotation Yrotation Zrotation
														End Site
														{
															OFFSET 0.000000 0.000000 0.000000
														}
													}
												}
											}
										}
										JOINT LeftHandPinky1
										{
											OFFSET 12.791824 -0.832031 -6.799156
											CHANNELS 3 Xrotation Yrotation Zrotation
											JOINT LeftHandPinky2
											{
												OFFSET 3.327133 0.000000 0.000000
												CHANNELS 3 Xrotation Yrotation Zrotation
												JOINT LeftHandPinky3
												{
													OFFSET 3.014900 0.000000 0.000000
													CHANNELS 3 Xrotation Yrotation Zrotation
													JOINT LeftHandPinky4
													{
														OFFSET 5.847786 0.000000 0.000000
														CHANNELS 3 Xrotation Yrotation Zrotation
														End Site
														{
															OFFSET 0.000000 0.000000 0.000000
														}
													}
												}
											}
										}
									}
								}
							}
						}
					}
					JOINT RightShoulder
					{
						OFFSET -6.292450 5.785301 -0.669000
						CHANNELS 3 Xrotation Yrotation Zrotation
						JOINT RightShoulder_split
						{
							OFFSET -6.292450 5.785301 -0.669000
							CHANNELS 3 Xrotation Yrotation Zrotation
							JOINT RightArm
							{
								OFFSET -13.907140 -6.093903 1.965100
								CHANNELS 3 Xrotation Yrotation Zrotation
								JOINT RightForeArm
								{
									OFFSET -34.140198 0.000000 0.000000
									CHANNELS 3 Xrotation Yrotation Zrotation
									JOINT RightHand
									{
										OFFSET -40.960209 0.000000 0.000000
										CHANNELS 3 Xrotation Yrotation Zrotation
										JOINT RightHandThumb1
										{
											OFFSET -10.007050 -7.170456 9.573117
											CHANNELS 3 Xrotation Yrotation Zrotation
											JOINT RightHandThumb2
											{
												OFFSET -1.835007 -1.059448 1.059443
												CHANNELS 3 Xrotation Yrotation Zrotation
												JOINT RightHandThumb3
												{
													OFFSET -2.112267 -1.219513 1.219518
													CHANNELS 3 Xrotation Yrotation Zrotation
													JOINT RightHandThumb4
													{
														OFFSET -4.843834 -2.796585 2.796590
														CHANNELS 3 Xrotation Yrotation Zrotation
														End Site
														{
															OFFSET 0.000000 0.000000 0.000000
														}
													}
												}
											}
										}
										JOINT RightHandIndex1
										{
											OFFSET -18.389870 -0.922424 4.596786
											CHANNELS 3 Xrotation Yrotation Zrotation
											JOINT RightHandIndex2
											{
												OFFSET -4.711273 0.000000 0.000000
												CHANNELS 3 Xrotation Yrotation Zrotation
												JOINT RightHandIndex3
												{
													OFFSET -2.886131 0.000000 0.000000
													CHANNELS 3 Xrotation Yrotation Zrotation
													JOINT RightHandIndex4
													{
														OFFSET -6.145920 0.000000 0.000000
														CHANNELS 3 Xrotation Yrotation Zrotation
														End Site
														{
															OFFSET 0.000000 0.000000 0.000000
														}
													}
												}
											}
										}
										JOINT RightHandMiddle1
										{
											OFFSET -18.013008 0.000000 0.000000
											CHANNELS 3 Xrotation Yrotation Zrotation
											JOINT RightHandMiddle2
											{
												OFFSET -4.946693 0.000000 0.000000
												CHANNELS 3 Xrotation Yrotation Zrotation
												JOINT RightHandMiddle3
												{
													OFFSET -3.342232 0.000000 0.000000
													CHANNELS 3 Xrotation Yrotation Zrotation
													JOINT RightHandMiddle4
													{
														OFFSET -4.461754 0.000000 0.000000
														CHANNELS 3 Xrotation Yrotation Zrotation
														End Site
														{
															OFFSET 0.000000 0.000000 0.000000
														}
													}
												}
											}
										}
										JOINT RightHandRing1
										{
											OFFSET -15.849876 -0.102936 -4.126237
											CHANNELS 3 Xrotation Yrotation Zrotation
											JOINT RightHandRing2
											{
												OFFSET -3.527054 0.000000 0.000000
												CHANNELS 3 Xrotation Yrotation Zrotation
												JOINT RightHandRing3
												{
													OFFSET -2.961098 0.000000 0.000000
													CHANNELS 3 Xrotation Yrotation Zrotation
													JOINT RightHandRing4
													{
														OFFSET -4.927200 0.000000 0.000000
														CHANNELS 3 Xrotation Yrotation Zrotation
														End Site
														{
															OFFSET 0.000000 0.000000 0.000000
														}
													}
												}
											}
										}
										JOINT RightHandPinky1
										{
											OFFSET -12.791786 -0.832077 -6.799222
											CHANNELS 3 Xrotation Yrotation Zrotation
											JOINT RightHandPinky2
											{
												OFFSET -3.327133 0.000000 0.000000
												CHANNELS 3 Xrotation Yrotation Zrotation
												JOINT RightHandPinky3
												{
													OFFSET -3.014900 0.000000 0.000000
													CHANNELS 3 Xrotation Yrotation Zrotation
													JOINT RightHandPinky4
													{
														OFFSET -5.847786 0.000000 0.000000
														CHANNELS 3 Xrotation Yrotation Zrotation
														End Site
														{
															OFFSET 0.000000 0.000000 0.000000
														}
													}
												}
											}
										}
									}
								}
							}
						}
					}
				}
			}
		}
	}
	JOINT LeftUpLeg
	{
		OFFSET 13.026900 -6.336304 -1.092800
		CHANNELS 3 Xrotation Yrotation Zrotation
		JOINT LeftLeg
		{
			OFFSET 0.524474 -46.096886 9.782700
			CHANNELS 3 Xrotation Yrotation Zrotation
			JOINT LeftFoot
			{
				OFFSET -0.524474 -53.427422 -12.948200
				CHANNELS 3 Xrotation Yrotation Zrotation
				JOINT LeftToeBase
				{
					OFFSET 0.192200 -14.009700 16.364100
					CHANNELS 3 Xrotation Yrotation Zrotation
					JOINT LeftToe_End
					{
						OFFSET -1.784700 -0.561700 9.474800
						CHANNELS 3 Xrotation Yrotation Zrotation
						End Site
						{
							OFFSET 0.000000 0.000000 0.000000
						}
					}
				}
			}
		}
	}
	JOINT RightUpLeg
	{
		OFFSET -12.883000 -6.336304 -1.092800
		CHANNELS 3 Xrotation Yrotation Zrotation
		JOINT RightLeg
		{
			OFFSET -0.524587 -46.096825 9.782800
			CHANNELS 3 Xrotation Yrotation Zrotation
			JOINT RightFoot
			{
				OFFSET 0.524587 -53.427383 -12.948300
				CHANNELS 3 Xrotation Yrotation Zrotation
				JOINT RightToeBase
				{
					OFFSET -0.192200 -14.009700 16.364100
					CHANNELS 3 Xrotation Yrotation Zrotation
					JOINT RightToe_End
					{
						OFFSET 1.784700 -0.561700 9.474800
						CHANNELS 3 Xrotation Yrotation Zrotation
						End Site
						{
							OFFSET 0.000000 0.000000 0.000000
						}
					}
				}
			}
		}
	}
}
MOTION
Frames: 4
Frame Time: 0.016667
2.181188 226.501617 -27.528461 5.210347 -6.861285 0.437285 8.443834 -1.247781 -0.729666 16.887414 -1.177192 -1.114029 0.000000 0.000000 0.000000 16.887424 -1.177190 -1.114029 -26.807214 6.493740 -1.451445 4.682586 -9.389106 9.652372 -0.000001 -0.000000 -0.000000 -0.612878 -14.977176 27.292794 0.000000 0.000000 0.000000 -67.334764 -8.203787 -15.014250 16.808284 -68.480269 48.053024 33.848874 9.957027 32.839631 -11.360191 -10.015405 28.397710 19.621115 23.755265 -10.341701 -0.000001 0.000003 0.000002 -0.000001 -0.000000 0.000001 -7.847204 -3.444994 -67.091241 -4.893161 2.726500 -36.316423 -0.000002 0.000012 0.000001 0.000000 -0.000000 -0.000003 -10.129417 -3.872120 -67.774246 -1.765733 1.717446 -28.158397 -0.000001 0.000002 0.000000 -0.000001 -0.000000 -0.000001 -15.176962 7.293285 -70.201736 7.766209 -0.421209 -31.520059 0.000002 -0.000003 0.000001 -0.000001 -0.000001 0.000002 -16.483430 5.440125 -74.872704 8.338717 -0.185849 -18.883057 0.000001 -0.000012 0.000002 0.000001 -0.000000 0.000000 6.218773 17.756040 -13.894189 0.000000 0.000000 0.000000 -82.947962 43.284517 24.548752 -18.192422 53.742459 -21.031670 34.793622 6.403779 -40.032374 15.333554 1.500919 -10.491467 -10.396773 -3.067645 -10.223939 0.000010 0.000002 0.000001 0.000000 0.000000 0.000000 0.920244 3.497200 64.452179 1.730970 9.565837 38.865446 0.000003 0.000006 0.000001 0.000001 0.000001 -0.000000 -6.652426 -3.924321 64.485708 9.406011 5.988766 38.253629 0.000001 -0.000001 0.000002 0.000001 -0.000002 -0.000000 -5.546334 1.390182 64.784816 0.232707 -1.792539 39.151754 0.000000 0.000011 0.000000 -0.000000 0.000001 -0.000000 -17.806373 -16.572286 61.043306 25.326729 3.860164 27.748248 -0.000001 -0.000001 0.000001 -0.000000 0.000000 0.000000 -95.848502 12.063592 23.547183 95.622321 2.946519 5.675394 1.094706 8.178283 -28.449126 17.823153 -1.543959 16.681607 -0.000000 0.000001 -0.000002 -111.930353 11.129605 -10.710043 104.615159 -8.530560 -2.236341 14.389170 -6.473780 34.601072 2.511553 3.761213 3.542731 -0.000000 0.000001 -0.000003 
2.531765 227.051392 -28.225765 3.844802 -7.235051 0.331952 9.097481 -0.902514 -0.596481 18.191664 -0.858376 -1.119250 0.000000 0.000000 0.000000 18.191659 -0.858374 -1.119251 -27.539471 7.278515 -1.689585 7.619249 -10.946536 10.643138 -0.000001 0.000001 -0.000000 0.325175 -15.904567 27.503493 0.000000 0.000000 0.000000 -69.510582 -10.660079 -14.371490 10.803153 -66.204231 45.525523 35.794672 7.408730 31.709795 -11.360180 -10.015411 28.397722 19.621115 23.755256 -10.341717 0.000000 0.000007 0.000004 0.000000 0.000001 0.000001 -7.847201 -3.444991 -67.091234 -4.893183 2.726533 -36.316430 -0.000002 0.000013 -0.000002 0.000000 0.000000 0.000001 -10.129395 -3.872137 -67.774239 -1.765756 1.717299 -28.158374 -0.000001 0.000003 0.000000 -0.000000 -0.000001 -0.000002 -15.176938 7.293256 -70.201722 7.766209 -0.421218 -31.520066 0.000002 -0.000002 0.000000 -0.000000 -0.000001 -0.000002 -16.483395 5.440030 -74.872698 8.338648 -0.185774 -18.883074 0.000002 -0.000012 0.000001 -0.000000 0.000001 0.000000 6.708637 18.898918 -14.296312 0.000000 0.000000 0.000000 -85.364107 45.042424 22.649406 -20.331807 51.306236 -20.083157 36.853064 8.003243 -39.095094 15.333566 1.500915 -10.491465 -10.396772 -3.067645 -10.223941 0.000011 0.000002 0.000002 -0.000000 -0.000000 -0.000000 0.920260 3.497228 64.452165 1.731003 9.565897 38.865470 0.000001 0.000007 0.000002 -0.000000 -0.000000 -0.000001 -6.652416 -3.924327 64.485687 9.406009 5.988784 38.253629 0.000000 -0.000003 0.000000 0.000001 0.000000 0.000000 -5.546330 1.390185 64.784761 0.232798 -1.792467 39.151751 0.000001 0.000012 -0.000000 0.000000 0.000001 -0.000001 -17.806348 -16.572289 61.043293 25.326896 3.860249 27.748226 0.000000 -0.000002 0.000001 -0.000000 0.000002 -0.000000 -98.605822 10.556915 23.746204 95.261188 1.534385 4.125246 1.009824 8.256851 -28.408007 17.111256 -0.820230 16.118521 0.000002 -0.000001 0.000002 -111.920320 7.810874 -11.260486 101.052437 -6.238997 -2.869034 12.235891 -6.801021 33.712028 4.570543 3.739874 1.887709 0.000000 0.000001 0.000001 
2.875499 227.623138 -29.075947 2.542416 -7.477848 0.324655 9.692305 -0.570670 -0.509665 19.380870 -0.593884 -1.137935 0.000000 0.000000 0.000000 19.380862 -0.593884 -1.137936 -27.906162 8.033922 -1.876915 10.220150 -12.179000 11.188142 0.000001 -0.000001 0.000001 1.416569 -16.917214 27.896840 0.000000 0.000000 0.000000 -71.463935 -13.211106 -13.429075 5.023531 -63.827250 43.312483 37.747426 4.815435 30.663991 -11.360188 -10.015413 28.397707 19.621105 23.755261 -10.341703 0.000000 0.000006 0.000001 -0.000000 0.000001 -0.000000 -7.847202 -3.444998 -67.091234 -4.893216 2.726543 -36.316423 -0.000003 0.000012 0.000001 -0.000000 -0.000000 -0.000003 -10.129360 -3.872166 -67.774239 -1.765766 1.717167 -28.158374 -0.000001 0.000003 0.000000 -0.000000 -0.000001 -0.000000 -15.176916 7.293213 -70.201729 7.766209 -0.421219 -31.520056 0.000003 -0.000003 0.000001 0.000000 -0.000001 0.000002 -16.483354 5.439954 -74.872698 8.338579 -0.185710 -18.883074 0.000002 -0.000011 0.000001 -0.000000 0.000000 0.000000 7.401558 20.145761 -15.002644 0.000000 0.000000 0.000000 -85.334806 46.412235 18.300092 -22.943294 49.160246 -18.542895 37.921647 8.917796 -38.636775 15.333560 1.500913 -10.491459 -10.396773 -3.067645 -10.223940 0.000011 0.000002 0.000003 -0.000000 -0.000000 0.000001 0.920252 3.497240 64.452179 1.731070 9.565914 38.865436 0.000002 0.000008 0.000002 0.000001 0.000001 0.000002 -6.652420 -3.924317 64.485687 9.406012 5.988773 38.253649 -0.000000 -0.000000 0.000001 0.000000 -0.000000 0.000001 -5.546333 1.390186 64.784768 0.232884 -1.792383 39.151747 0.000001 0.000013 0.000003 -0.000000 0.000001 -0.000001 -17.806366 -16.572279 61.043293 25.327038 3.860350 27.748217 0.000000 0.000001 0.000001 -0.000000 -0.000001 0.000000 -100.159827 10.052748 23.317199 93.023427 0.069676 3.038468 1.254076 8.158605 -27.695280 15.821423 -0.277170 14.834010 0.000002 -0.000000 0.000001 -110.436530 4.252790 -11.909497 96.169439 -3.379585 -3.118822 9.269286 -7.163683 31.444395 6.672928 3.651667 0.751855 0.000000 0.000001 -0.000001 
3.172484 228.115570 -30.089657 1.363655 -7.625013 0.386899 10.217020 -0.278463 -0.446184 20.431044 -0.404107 -1.150168 0.000000 0.000000 0.000000 20.431034 -0.404109 -1.150167 -27.891907 8.715287 -1.992549 12.324963 -12.999073 11.298006 0.000001 0.000000 -0.000000 2.554297 -17.796331 28.564099 0.000000 0.000000 0.000000 -72.885085 -15.245547 -11.944082 -0.383336 -61.659772 41.125064 39.226453 2.594678 29.927526 -11.360191 -10.015413 28.397714 19.621115 23.755266 -10.341713 0.000000 0.000004 0.000002 -0.000000 0.000001 -0.000001 -7.847211 -3.444997 -67.091220 -4.893239 2.726587 -36.316427 -0.000003 0.000012 -0.000000 -0.000000 -0.000000 0.000001 -10.129372 -3.872197 -67.774212 -1.765797 1.717029 -28.158370 -0.000001 0.000002 0.000002 -0.000000 0.000000 0.000000 -15.176923 7.293169 -70.201716 7.766215 -0.421196 -31.520059 0.000002 -0.000003 -0.000000 -0.000000 -0.000001 -0.000001 -16.483352 5.439867 -74.872698 8.338509 -0.185624 -18.883084 0.000002 -0.000012 0.000001 -0.000001 -0.000001 -0.000000 8.191179 21.269076 -15.938339 0.000000 0.000000 0.000000 -83.291343 47.315876 12.192957 -25.736566 47.219649 -16.682256 38.042118 9.218864 -38.545230 15.333565 1.500921 -10.491461 -10.396773 -3.067645 -10.223937 0.000011 0.000002 0.000000 -0.000000 0.000000 -0.000000 0.920263 3.497257 64.452151 1.731125 9.565952 38.865429 0.000001 0.000006 0.000002 0.000000 -0.000002 -0.000002 -6.652411 -3.924333 64.485701 9.406011 5.988773 38.253629 -0.000000 -0.000000 -0.000000 0.000001 0.000001 0.000000 -5.546334 1.390190 64.784795 0.232959 -1.792325 39.151758 0.000001 0.000011 0.000001 0.000000 -0.000000 0.000000 -17.806371 -16.572289 61.043299 25.327209 3.860428 27.748221 0.000001 -0.000001 0.000001 -0.000000 0.000001 -0.000000 -100.197926 10.463791 22.349562 89.048735 -1.610223 2.349077 1.456571 7.986719 -26.115761 13.772656 -0.049340 12.878795 -0.000001 -0.000000 -0.000002 -107.638064 0.626773 -12.488692 90.036278 -0.220348 -2.985931 6.004932 -7.337287 27.867295 8.520751 3.608322 0.260843 -0.000000 0.000001 -0.000002 
